<svg width="110" height="57" viewBox="0 0 110 57" fill="none" xmlns="http://www.w3.org/2000/svg">
    <path
        d="M37.8465 0H17.2541C14.1961 0 11.6992 2.35662 11.6992 5.27433V6.7332H13.4667V5.27433C13.4667 3.31048 15.15 1.71135 17.2541 1.71135H37.8465C39.9225 1.71135 41.6339 3.31048 41.6339 5.27433V50.7795C41.6339 52.7434 39.9506 54.3425 37.8465 54.3425H17.2541C15.178 54.3425 13.4667 52.7434 13.4667 50.7795V49.2926H11.6992V50.7515C11.6992 53.6692 14.1961 56.0258 17.2541 56.0258H37.8465C40.9045 56.0258 43.4013 53.6692 43.4013 50.7515V5.27433C43.4013 2.35662 40.9325 0 37.8465 0Z"
        fill="#0381E0" />
    <path
        d="M29.6546 4.46062H25.4745C25.1939 4.46062 24.9414 4.20813 24.9414 3.92758C24.9414 3.64703 25.1939 3.39453 25.4745 3.39453H29.6546C29.9352 3.39453 30.1877 3.64703 30.1877 3.92758C30.1877 4.20813 29.9352 4.46062 29.6546 4.46062Z"
        fill="#0381E0" />
    <path
        d="M33.6936 16.7211L33.4972 17.8433C33.4411 17.7311 33.3289 17.647 33.2167 17.5628C33.0764 17.5067 32.9361 17.4506 32.7959 17.4506C32.5995 17.4506 32.4031 17.5067 32.2067 17.5909C32.0103 17.7031 31.87 17.8433 31.7298 18.0117C31.5895 18.2081 31.5053 18.4044 31.4773 18.6569C31.4492 18.7411 31.4492 18.8533 31.4492 18.9375C31.4492 19.1339 31.4773 19.3022 31.5614 19.4425C31.6456 19.5828 31.7578 19.695 31.87 19.7791C32.0103 19.8633 32.1506 19.8914 32.347 19.8914C32.5153 19.8914 32.6836 19.8633 32.8239 19.7791C32.9642 19.695 33.1045 19.6108 33.1886 19.4986L33.1325 19.8633H33.7497L34.3108 16.665H33.6936V16.7211ZM33.3289 18.7131C33.3009 18.8533 33.2447 18.9936 33.1886 19.0778C33.1045 19.19 33.0203 19.2742 32.9081 19.3303C32.7959 19.3864 32.6836 19.4144 32.5714 19.4144C32.4311 19.4144 32.2909 19.3583 32.2067 19.2742C32.1225 19.1619 32.0664 19.0497 32.0664 18.8533C32.0664 18.7972 32.0664 18.7411 32.0664 18.685C32.0945 18.5447 32.1506 18.4044 32.2348 18.3203C32.3189 18.2081 32.4031 18.1239 32.5153 18.0678C32.6275 18.0117 32.7397 17.9836 32.852 17.9836C32.9922 17.9836 33.1325 18.0397 33.2167 18.1239C33.3289 18.2081 33.357 18.3483 33.357 18.5167C33.357 18.5728 33.357 18.6289 33.3289 18.7131Z"
        fill="#0381E0" />
    <path d="M36.4431 35.5459H6.05957V36.0228H36.4431V35.5459Z" fill="#0381E0" />
    <path d="M36.4435 37.3691H6.62109V37.8461H36.4435V37.3691Z" fill="#0381E0" />
    <path d="M36.4431 39.2207H6.05957V39.6976H36.4431V39.2207Z" fill="#0381E0" />
    <path d="M36.4149 33.6943H7.18164V34.1713H36.4149V33.6943Z" fill="#0381E0" />
    <path d="M36.4437 41.1006H7.46289V41.5775H36.4437V41.1006Z" fill="#0381E0" />
    <path
        d="M23.1456 18.0675C23.4542 18.2358 24.2678 18.825 25.1375 20.1155C25.1656 20.1716 25.2497 20.1716 25.2778 20.1155C25.6144 19.6105 27.1294 17.31 28.1955 16.8611C28.2516 16.8331 28.3077 16.777 28.3077 16.6928C28.2797 16.3001 28.2235 15.1217 28.3638 14.4484C28.3638 14.3923 28.3358 14.3643 28.2797 14.3643C27.8588 14.5326 26.5403 15.3181 25.3339 18.292L24.6886 16.8892C24.6606 16.8331 24.5764 16.805 24.5203 16.8611L23.1456 17.9272C23.0895 17.9553 23.0895 18.0395 23.1456 18.0675Z"
        fill="#0381E0" />
    <path
        d="M10.8858 15.5986H7.4631C6.902 15.5986 6.45312 16.0475 6.45312 16.6086V20.0313C6.45312 20.5924 6.902 21.0413 7.4631 21.0413H10.8858C11.4469 21.0413 11.8958 20.5924 11.8958 20.0313V16.6086C11.8958 16.0475 11.4469 15.5986 10.8858 15.5986ZM11.5872 20.0313C11.5872 20.4241 11.2786 20.7327 10.8858 20.7327H7.4631C7.07033 20.7327 6.76173 20.4241 6.76173 20.0313V16.6086C6.76173 16.2158 7.07033 15.9072 7.4631 15.9072H10.8858C11.2786 15.9072 11.5872 16.2158 11.5872 16.6086V20.0313Z"
        fill="#0381E0" />
    <path
        d="M18.7977 15.5986H15.3469C14.7858 15.5986 14.3369 16.0475 14.3369 16.6086V20.0313C14.3369 20.5924 14.7858 21.0413 15.3469 21.0413H18.7696C19.3307 21.0413 19.7796 20.5924 19.7796 20.0313V16.6086C19.7796 16.0475 19.3307 15.5986 18.7977 15.5986ZM19.499 20.0313C19.499 20.4241 19.1904 20.7327 18.7977 20.7327H15.3469C14.9541 20.7327 14.6455 20.4241 14.6455 20.0313V16.6086C14.6455 16.2158 14.9541 15.9072 15.3469 15.9072H18.7696C19.1624 15.9072 19.471 16.2158 19.471 16.6086V20.0313H19.499Z"
        fill="#0381E0" />
    <path
        d="M26.793 15.627C26.7649 15.627 26.7088 15.627 26.6807 15.627H23.258C22.6969 15.627 22.248 16.0758 22.248 16.6369V20.0596C22.248 20.6207 22.6969 21.0696 23.258 21.0696H26.6807C27.2418 21.0696 27.6907 20.6207 27.6907 20.0596V16.6369C27.6907 16.1039 27.2979 15.6831 26.793 15.627ZM27.3821 20.0316C27.3821 20.4244 27.0735 20.733 26.6807 20.733H23.258C22.8653 20.733 22.5566 20.4244 22.5566 20.0316V16.6089C22.5566 16.2161 22.8653 15.9075 23.258 15.9075H26.6807C27.0735 15.9075 27.3821 16.2161 27.3821 16.6089V20.0316Z"
        fill="#0381E0" />
    <path
        d="M34.5919 15.5986H31.1692C30.6081 15.5986 30.1592 16.0475 30.1592 16.6086V20.0313C30.1592 20.5924 30.6081 21.0413 31.1692 21.0413H34.5919C35.153 21.0413 35.6018 20.5924 35.6018 20.0313V16.6086C35.5738 16.0475 35.1249 15.5986 34.5919 15.5986ZM35.2932 20.0313C35.2932 20.4241 34.9846 20.7327 34.5919 20.7327H31.1692C30.7764 20.7327 30.4678 20.4241 30.4678 20.0313V16.6086C30.4678 16.2158 30.7764 15.9072 31.1692 15.9072H34.5919C34.9846 15.9072 35.2932 16.2158 35.2932 16.6086V20.0313Z"
        fill="#0381E0" />
    <path
        d="M9.98765 17.1411L9.93154 17.4777C9.87543 17.3655 9.79126 17.2813 9.65099 17.1972C9.53877 17.113 9.37044 17.085 9.20211 17.085C9.00572 17.085 8.80934 17.1411 8.61295 17.2252C8.41657 17.3375 8.27629 17.4777 8.13602 17.6461C7.99574 17.8424 7.91158 18.0388 7.88352 18.2913C7.85547 18.3755 7.85547 18.4877 7.85547 18.5719C7.85547 18.7683 7.88352 18.9366 7.96769 19.0769C8.05185 19.2171 8.13602 19.3294 8.27629 19.4135C8.41657 19.4977 8.55684 19.5257 8.75323 19.5257C8.92156 19.5257 9.08989 19.4977 9.25822 19.4135C9.39849 19.3294 9.53877 19.2452 9.62293 19.133L9.56682 19.4696H10.184L10.6049 17.085H9.98765V17.1411ZM9.79126 18.3194C9.76321 18.4597 9.7071 18.5999 9.65099 18.6841C9.56682 18.7963 9.48266 18.8805 9.37044 18.9366C9.25822 18.9927 9.146 19.0208 9.03378 19.0208C8.8935 19.0208 8.75323 18.9646 8.66906 18.8805C8.5849 18.7683 8.52879 18.656 8.52879 18.4597C8.52879 18.4035 8.52879 18.3474 8.52879 18.2913C8.55684 18.1511 8.61295 18.0108 8.69712 17.9266C8.78128 17.8144 8.86545 17.7302 8.97767 17.6741C9.08989 17.618 9.20211 17.59 9.31433 17.59C9.4546 17.59 9.59488 17.6461 9.67904 17.7302C9.79126 17.8144 9.81932 17.9547 9.81932 18.123C9.79126 18.2072 9.79126 18.2633 9.79126 18.3194Z"
        fill="#0381E0" />
    <path
        d="M18.32 17.9271C18.2359 17.7868 18.1517 17.6746 18.0114 17.5904C17.8712 17.5062 17.7309 17.4782 17.5345 17.4782C17.3662 17.4782 17.1979 17.5062 17.0576 17.5904C16.9173 17.6746 16.777 17.7587 16.6929 17.871L16.8892 16.7207H16.272L15.7109 19.919H16.3281L16.3843 19.5823C16.4404 19.6945 16.5245 19.7787 16.6648 19.8629C16.777 19.919 16.9454 19.9751 17.1137 19.9751C17.3101 19.9751 17.5065 19.919 17.7028 19.8068C17.8992 19.6945 18.0395 19.5543 18.1798 19.3579C18.32 19.1615 18.4042 18.9651 18.4323 18.7126C18.4603 18.6284 18.4603 18.5162 18.4603 18.4321C18.4323 18.2357 18.4042 18.0673 18.32 17.9271ZM17.787 18.6846C17.7589 18.8248 17.7028 18.9651 17.6187 19.0773C17.5345 19.1895 17.4503 19.2737 17.3381 19.3298C17.2259 19.3859 17.1137 19.414 17.0015 19.414C16.8612 19.414 16.7209 19.3579 16.6368 19.2737C16.5245 19.1895 16.4965 19.0493 16.4965 18.8809C16.4965 18.8529 16.4965 18.7968 16.5245 18.7126C16.5526 18.5723 16.6087 18.4321 16.6929 18.3479C16.777 18.2357 16.8612 18.1515 16.9734 18.0954C17.0856 18.0393 17.1979 18.0112 17.3101 18.0112C17.4503 18.0112 17.5906 18.0673 17.6748 18.1515C17.759 18.2357 17.8151 18.3759 17.8151 18.5443C17.8151 18.6004 17.787 18.6284 17.787 18.6846Z"
        fill="#0381E0" />
    <path
        d="M38.8 27.4653H6.76125C3.02994 27.4653 0 24.4354 0 20.7041V16.103C0 12.3717 3.02994 9.3418 6.76125 9.3418H38.8V11.8387H6.92958C4.4888 11.8387 2.49689 13.8306 2.49689 16.2714V20.5638C2.49689 23.0046 4.4888 24.9965 6.92958 24.9965H37.3131C38.1548 24.9965 38.8281 25.6698 38.8281 26.5114L38.8 27.4653Z"
        fill="#0381E0" />
    <path
        d="M38.8 46.7114H6.76125C3.02994 46.7114 0 43.6815 0 39.9502V35.3491C0 31.6178 3.02994 28.5879 6.76125 28.5879H38.8V29.5979C38.8 30.4395 38.1267 31.1128 37.2851 31.1128H6.92958C4.4888 31.1128 2.49689 33.1047 2.49689 35.5455V39.8379C2.49689 42.2787 4.4888 44.2706 6.92958 44.2706H38.8281L38.8 46.7114Z"
        fill="#0381E0" />
    <path
        d="M64.4421 14.6735H59.5886L57.3722 28.7852H52.4626L54.707 14.6735H49.8535L50.5549 10.7178H65.0874L64.4421 14.6735Z"
        fill="#045689" />
    <path
        d="M63.8252 28.7845L66.7149 10.7451H79.3115L78.6382 14.8131H70.867L70.3901 17.843H77.5441L76.9269 21.5743H69.7729L69.2959 24.7446H77.488L76.8147 28.7564H63.8252V28.7845Z"
        fill="#045689" />
    <path
        d="M93.9841 11.5027L92.6374 15.1779C91.936 14.9254 91.1786 14.729 90.393 14.5887C89.6075 14.4485 88.7658 14.3924 87.8961 14.3924C87.307 14.3924 86.802 14.4485 86.4092 14.5607C86.0164 14.6729 85.7359 14.8693 85.5676 15.0937C85.3992 15.3182 85.3151 15.5987 85.3151 15.9073C85.3151 16.1879 85.4273 16.4123 85.6517 16.6087C85.8762 16.8051 86.1848 17.0015 86.5495 17.1698C86.9142 17.3381 87.335 17.5345 87.7839 17.7028C88.2328 17.8712 88.7097 18.0676 89.2147 18.292C89.6916 18.5164 90.1686 18.7409 90.6455 19.0214C91.1224 19.302 91.5152 19.6106 91.908 20.0034C92.2727 20.3961 92.5813 20.845 92.8058 21.35C93.0302 21.855 93.1424 22.4441 93.1424 23.1455C93.1424 24.3238 92.8619 25.3619 92.3008 26.2596C91.7397 27.1574 90.8419 27.8307 89.6355 28.3357C88.4292 28.8126 86.8861 29.0651 85.0065 29.0651C83.6598 29.0651 82.3973 28.9529 81.219 28.7285C80.0407 28.504 79.0027 28.1954 78.0488 27.8026L79.4516 24.0152C80.153 24.2677 80.8263 24.4922 81.4996 24.6605C82.1729 24.8288 82.8182 24.941 83.4634 25.0252C84.1087 25.1094 84.754 25.1655 85.3992 25.1655C86.0164 25.1655 86.5214 25.1094 86.8861 24.9971C87.2509 24.8849 87.5314 24.7166 87.6717 24.4922C87.84 24.2677 87.9242 24.0152 87.9242 23.7347C87.9242 23.4541 87.812 23.2016 87.6156 22.9772C87.3911 22.7527 87.1106 22.5564 86.7178 22.388C86.3531 22.2197 85.9323 22.0514 85.4553 21.883C84.9784 21.7147 84.5015 21.5464 84.0245 21.3219C83.5476 21.1256 83.0707 20.8731 82.5937 20.6206C82.1168 20.3681 81.696 20.0314 81.3313 19.6667C80.9665 19.302 80.6579 18.8531 80.4335 18.3481C80.2091 17.8431 80.1249 17.2259 80.1249 16.5526C80.1249 15.3182 80.4054 14.2521 80.9946 13.3543C81.5838 12.4566 82.4815 11.7552 83.7159 11.2783C84.9223 10.8013 86.4934 10.5488 88.345 10.5488C89.0464 10.5488 89.7197 10.5769 90.365 10.6611C91.0102 10.7452 91.6274 10.8574 92.2727 10.9977C92.8338 11.1099 93.423 11.2783 93.9841 11.5027Z"
        fill="#045689" />
    <path
        d="M109.134 14.6735H104.28L102.064 28.7852H97.154L99.3984 14.6735H94.5449L95.2463 10.7178H109.779L109.134 14.6735Z"
        fill="#045689" />
    <path
        d="M62.1138 38.6038C62.3663 37.8463 62.5066 36.9485 62.5066 35.9385C62.5066 34.9847 62.3383 34.2272 61.9735 33.61C61.6088 32.9928 61.0197 32.5439 60.2061 32.2633C59.3925 31.9547 58.3544 31.8145 57.0639 31.8145C56.8395 31.8145 56.5589 31.8145 56.2223 31.8145C55.8856 31.8145 55.5209 31.8425 55.1001 31.8425C54.6792 31.8425 54.2023 31.8706 53.6973 31.8986C53.1923 31.9267 52.6312 31.9547 52.0421 31.9828L49.8818 45.365H53.5009L54.062 41.9704C54.3987 41.9984 54.6792 41.9984 54.9037 42.0265C55.1001 42.0265 55.2964 42.0265 55.4648 42.0545C55.6331 42.0545 55.8295 42.0545 56.0539 42.0545C57.1481 42.0545 58.13 41.9142 58.9155 41.6618C59.7291 41.4093 60.4025 41.0165 60.9355 40.4834C61.4685 39.9504 61.8333 39.3612 62.1138 38.6038ZM58.663 37.5096C58.5508 37.8182 58.3825 38.0988 58.1581 38.3513C57.9336 38.6038 57.625 38.7721 57.2322 38.9124C56.8675 39.0526 56.3906 39.1087 55.8295 39.1087C55.6892 39.1087 55.577 39.1087 55.4648 39.1087C55.3526 39.1087 55.2123 39.0807 55.044 39.0807C54.9037 39.0807 54.7073 39.0526 54.4829 39.0526L55.1842 34.8163C55.4087 34.7883 55.6051 34.7883 55.7453 34.7602C55.8856 34.7602 56.0259 34.7602 56.1662 34.7322C56.2784 34.7322 56.4186 34.7322 56.5309 34.7322C56.6711 34.7322 56.8114 34.7322 56.9517 34.7322C57.4286 34.7322 57.7933 34.7883 58.0458 34.9286C58.3264 35.0688 58.4947 35.2372 58.6069 35.4897C58.7192 35.7422 58.7753 36.0788 58.7753 36.4716C58.8314 36.8644 58.7753 37.201 58.663 37.5096Z"
        fill="#0381E0" />
    <path
        d="M66.4904 31.9268L60.627 45.3932H64.5547L65.3963 43.2049H68.7068L68.8751 45.3932H72.8028L71.1195 31.9268H66.4904ZM66.4904 40.3152L68.3701 34.8164L68.5665 40.3152H66.4904Z"
        fill="#0381E0" />
    <path
        d="M85.8759 33.6383C85.5112 33.0211 84.922 32.5722 84.1084 32.2917C83.2948 31.9831 82.2568 31.8428 80.9663 31.8428C80.7418 31.8428 80.4613 31.8428 80.1246 31.8428C79.7879 31.8428 79.4232 31.8708 79.0024 31.8708C78.5816 31.8708 78.1046 31.8989 77.5997 31.9269C77.0947 31.955 76.5336 31.9831 75.9444 32.0111L73.7842 45.3933H77.4033L77.9644 41.9987C78.301 42.0267 78.5816 42.0267 78.806 42.0548C79.0024 42.0548 79.1988 42.0548 79.3671 42.0828C79.5355 42.0828 79.7318 42.0828 79.9563 42.0828C81.0504 42.0828 82.0323 41.9426 82.8179 41.6901C83.6315 41.4376 84.3048 41.0448 84.8378 40.5118C85.3709 39.9787 85.7637 39.3615 86.0442 38.604C86.2967 37.8465 86.437 36.9488 86.437 35.9388C86.437 35.013 86.2406 34.2274 85.8759 33.6383ZM82.6215 37.5099C82.5093 37.8185 82.341 38.099 82.1165 38.3515C81.8921 38.604 81.5835 38.7723 81.1907 38.9126C80.826 39.0529 80.3491 39.109 79.788 39.109C79.6477 39.109 79.5355 39.109 79.4232 39.109C79.311 39.109 79.1707 39.081 79.0024 39.081C78.8621 39.081 78.6657 39.0529 78.4413 39.0529L79.1427 34.8166C79.3671 34.7885 79.5635 34.7885 79.7038 34.7605C79.8441 34.7605 79.9843 34.7605 80.1246 34.7324C80.2368 34.7324 80.3771 34.7324 80.4893 34.7324C80.6296 34.7324 80.7699 34.7324 80.9102 34.7324C81.3871 34.7324 81.7518 34.7885 82.0043 34.9288C82.2848 35.0691 82.4532 35.2374 82.5654 35.4899C82.6776 35.7424 82.7337 36.0791 82.7337 36.4718C82.7618 36.8646 82.7057 37.2013 82.6215 37.5099Z"
        fill="#0381E0" />
    <path
        d="M95.9766 40.0625L96.4254 37.2851H91.123L91.4878 35.0407H97.239L97.744 32.0107H88.4017L86.2695 45.393H95.8924L96.3974 42.3911H90.3095L90.6742 40.0625H95.9766Z"
        fill="#0381E0" />
    <path
        d="M108.853 42.1109C108.685 42.1109 108.489 42.0828 108.292 42.0267C108.096 41.9706 107.899 41.8865 107.703 41.7742C107.507 41.662 107.31 41.5217 107.114 41.3254C106.918 41.157 106.721 40.9326 106.553 40.7082C106.497 40.624 106.441 40.5679 106.384 40.4837C106.721 40.3995 107.03 40.2593 107.338 40.119C108.124 39.7262 108.741 39.1651 109.19 38.4076C109.639 37.6782 109.835 36.7804 109.835 35.7144C109.835 35.0971 109.723 34.5641 109.527 34.0872C109.33 33.6102 108.994 33.2175 108.573 32.8808C108.152 32.5441 107.591 32.2917 106.918 32.1233C106.244 31.955 105.431 31.8428 104.477 31.8428C104.084 31.8428 103.635 31.8428 103.13 31.8708C102.625 31.8989 102.064 31.8989 101.475 31.9269C100.858 31.955 100.184 31.9831 99.4268 32.0111L97.2666 45.3933H100.886L101.559 41.2412C101.812 41.2412 102.064 41.2412 102.316 41.2412C102.457 41.2412 102.597 41.2412 102.765 41.2412C103.046 41.7742 103.326 42.2512 103.579 42.672C103.916 43.2331 104.28 43.682 104.589 44.0467C104.926 44.4114 105.262 44.72 105.599 44.9444C105.936 45.1689 106.3 45.3372 106.637 45.4214C107.002 45.5336 107.366 45.5617 107.759 45.5617C107.871 45.5617 108.04 45.5617 108.264 45.5336C108.489 45.5055 108.657 45.4775 108.741 45.4494L109.162 42.0828C109.106 42.0828 109.05 42.1109 108.994 42.1109C108.937 42.1109 108.881 42.1109 108.853 42.1109ZM101.952 38.5199L102.569 34.7044C102.793 34.7044 102.99 34.6763 103.13 34.6763C103.27 34.6763 103.411 34.6483 103.523 34.6483C103.635 34.6483 103.775 34.6483 103.888 34.6483C104.028 34.6483 104.168 34.6483 104.336 34.6483C104.673 34.6483 104.954 34.6763 105.178 34.7605C105.403 34.8447 105.571 34.9288 105.711 35.0691C105.851 35.2094 105.936 35.3496 105.992 35.518C106.048 35.6863 106.076 35.8827 106.076 36.0791C106.076 36.6121 105.964 37.061 105.767 37.4257C105.571 37.7904 105.29 38.099 104.898 38.2954C104.505 38.4918 104.056 38.604 103.495 38.604C103.298 38.604 103.13 38.604 102.962 38.604C102.793 38.604 102.625 38.576 102.457 38.576C102.288 38.5479 102.12 38.5479 101.952 38.5199Z"
        fill="#0381E0" />
</svg>